<svg xmlns="http://www.w3.org/2000/svg" height="109.667" width="878.747" fill="#fff"><path d="M47.334 59.412c-1.584 2.818-3.648 5.028-6.137 6.569-2.475 1.534-5.12 2.311-7.865 2.311-3.788 0-6.734-1.371-9.001-4.195-2.286-2.843-3.443-6.551-3.443-11.026 0-4.014 1.205-7.405 3.58-10.076 2.382-2.678 5.319-3.979 8.974-3.979 6.055 0 10.444 2.995 13.422 9.163l.244.503H61.72V23.239H47.222v4.151c-5.346-3.273-10.983-4.93-16.778-4.93-5.504 0-10.643 1.358-15.278 4.035S6.807 32.899 4.092 37.569 0 47.567 0 53.403c0 9.767 3.001 17.529 8.921 23.066 5.9 5.522 13.983 8.323 24.022 8.323 7.73 0 13.985-1.506 18.593-4.477 4.589-2.958 8.56-7.555 11.803-13.663l.448-.843-16.057-7.1-.396.702m59.061-6.452c0 5.081-.981 9.008-2.914 11.674-1.897 2.61-4.449 3.881-7.809 3.881-3.21 0-5.71-1.287-7.643-3.941-1.97-2.701-2.967-6.347-2.967-10.835 0-5.344.917-9.369 2.729-11.964 1.765-2.53 4.307-3.758 7.77-3.758 3.434 0 6.027 1.253 7.923 3.831 1.931 2.629 2.91 6.366 2.91 11.112zm16.828-15.717a29.6 29.6 0 0 0-11.28-11.249c-4.78-2.712-10.217-4.089-16.159-4.089-5.831 0-11.23 1.376-16.046 4.087-4.823 2.716-8.663 6.499-11.417 11.246s-4.147 10.147-4.147 16.056c0 5.942 1.355 11.378 4.028 16.156a29.06 29.06 0 0 0 11.257 11.283c4.782 2.693 10.273 4.058 16.325 4.058 5.719 0 11.043-1.365 15.825-4.058s8.629-6.483 11.44-11.267 4.234-10.225 4.234-16.172c0-5.907-1.367-11.306-4.06-16.051m123.3 46.159V68.18h-9.668V46.236c0-5.717-.695-10.352-2.064-13.774-1.408-3.52-3.659-6.105-6.693-7.682-2.967-1.541-6.956-2.321-11.853-2.321-8.015 0-15.877 2.569-23.383 7.637-4.273-5.068-10.215-7.637-17.671-7.637-6.111 0-12.156 1.68-18.001 4.997v-4.22h-29.999V38.68h9.555v29.5h-9.555v15.221h39.556V68.18h-9.557V43.688c5.003-2.327 9.225-3.508 12.556-3.508 4.587 0 6.721 2.683 6.721 8.444V83.4h30V68.18h-9.556V43.677c4.795-2.32 8.997-3.497 12.501-3.497 4.775 0 6.999 2.489 6.999 7.833V83.4h30.112m46.351-29.899c0 4.785-.933 8.506-2.775 11.063-1.803 2.499-4.331 3.716-7.725 3.716-3.291 0-5.883-1.328-7.927-4.06-2.076-2.773-3.128-6.304-3.128-10.495 0-4.482 1.013-8.077 3.011-10.681 1.969-2.569 4.528-3.819 7.823-3.819 3.477 0 6.06 1.191 7.9 3.644 1.872 2.498 2.821 6.074 2.821 10.633zm8.988-26.861c-3.897-2.782-8.565-4.194-13.877-4.194-5.965 0-11.468 2.295-16.387 6.828v-6.049h-28.667V38.67h8.333v55.774h-9.888v15.223h41.775V94.444h-11.553V78.576c4.967 4.117 10.397 6.203 16.165 6.203 5.156 0 9.783-1.36 13.748-4.041 3.955-2.673 7.02-6.398 9.119-11.066 2.077-4.633 3.132-9.923 3.132-15.726 0-5.868-1.015-11.239-3.015-15.957-2.02-4.761-5.008-8.58-8.885-11.349m73.888-3.41h-29.277v15.443h8.944v24.721c-3.395 2.506-6.569 3.778-9.444 3.778-2.051 0-3.441-.409-4.129-1.216-.5-.581-1.092-1.932-1.092-5.061V23.23h-29v15.443h8.779v26.998c0 5.739 1.675 10.323 4.981 13.63s7.964 4.981 13.851 4.981c5.197 0 10.591-1.696 16.055-5.045v4.156h29.888v-15.22h-9.555V23.23M410.37-.003l-20.335 14.609v8.624h-7.388v15.443h7.388v29.944c0 4.924 1.368 8.807 4.063 11.539s6.749 4.126 12.049 4.126c4.5 0 9.356-1.011 14.435-3.004l.564-.222V66.239l-1.191.43c-4.505 1.628-7.717 1.443-8.719.153-.576-.743-.867-1.932-.867-3.537V38.673h10.776V23.23H410.37V-.003m31.866 46.018c.559-3.235 1.699-5.691 3.385-7.301 1.839-1.754 4.335-2.643 7.413-2.643 2.979 0 5.479.985 7.643 3.011 1.925 1.801 3.197 4.13 3.795 6.933zm42.965 11.212c-.075-6.983-1.381-13.208-3.891-18.508-2.525-5.337-6.181-9.52-10.861-12.432s-10.239-4.384-16.527-4.384c-5.795 0-11.239 1.413-16.184 4.199a31.53 31.53 0 0 0-11.831 11.628c-2.902 4.93-4.373 10.503-4.373 16.561 0 6.139 1.419 11.566 4.217 16.131s6.791 8.149 11.864 10.64c5.045 2.473 10.927 3.728 17.473 3.728 6.556 0 12.319-1.238 17.125-3.68 4.819-2.446 8.913-6.165 12.171-11.048l.652-.976-16.092-5.2-.384.402c-4.213 4.39-8.559 6.615-12.916 6.615-3.923 0-7.161-1.232-9.624-3.66-2.292-2.259-3.723-5.322-4.261-9.118h43.449l-.008-.898m52.565-34.769c-5.659 0-10.483 1.561-14.333 4.64-2.604 2.082-4.665 4.555-6.167 7.381V23.235h-28.999V38.68h10.165v29.5H487.71v15.221h42.721V68.18H518.82v-4.891c0-5.603.796-9.946 2.368-12.915 1.543-2.912 3.751-4.992 6.561-6.181 2.913-1.232 6.919-2.023 11.905-2.348l.831-.053V22.714l-.733-.131c-.467-.084-1.117-.125-1.988-.125m64.925 39.148h-.024l.023-.231h-15.204v.231 6.921h-17.573l32.032-31.747V23.285h-.053v-.055h-57.755v1.145 3.943 16.544l14.345.122V37.14h16.199l-3.976 3.5-29.397 29.093V83.4h61.384l-.04-.397h.04V61.606m29.034 9.47c-1.797 0-3.273-.594-4.513-1.815s-1.84-2.632-1.84-4.318c0-2.055.635-3.646 1.94-4.862 1.316-1.229 2.981-1.827 5.092-1.827a14.62 14.62 0 0 1 4.548.747c1.451.477 3.2 1.293 5.201 2.428v4.77c-3.769 3.236-7.276 4.876-10.428 4.876zm39.313-2.357v-.356h-8.543V44.891c0-4.37-.569-7.978-1.691-10.723-1.139-2.781-3.028-5.092-5.621-6.873-5.295-3.548-12.045-5.347-20.063-5.347-7.863 0-14.608 1.72-20.017 5.097-2.323 1.296-4.209 2.769-5.609 4.377-1.395 1.6-2.875 4.05-4.401 7.282l-.379.804 17.999 2.772.215-.438c1.932-3.947 5.219-5.867 10.043-5.867 2.753 0 4.999.801 6.675 2.381 1.688 1.593 2.508 3.658 2.508 6.313v3.847c-1.251-.585-2.292-1.005-3.105-1.252-.999-.301-2.236-.606-3.656-.901-2.16-.53-4.497-.798-6.948-.798-6.697 0-12.269 1.871-16.561 5.563-4.323 3.719-6.515 8.518-6.515 14.261 0 5.734 1.956 10.487 5.811 14.129 3.845 3.631 8.853 5.472 14.887 5.472 5.095 0 9.828-1.463 14.112-4.379l1.976-1.585v1.496V83.4h28.885v-.929l.06.006v-1.955-11.804h-.06m27.009 2.358c-1.797 0-3.273-.594-4.513-1.815s-1.84-2.632-1.84-4.318c0-2.055.635-3.646 1.94-4.862 1.317-1.229 2.983-1.827 5.093-1.827 1.503 0 3.033.252 4.547.747 1.452.477 3.2 1.293 5.201 2.428v4.77c-3.769 3.236-7.276 4.876-10.428 4.876zm39.373-2.357l-.06.001v-.357h-8.543V44.891c0-4.37-.569-7.978-1.691-10.723-1.139-2.781-3.028-5.092-5.62-6.873-5.296-3.548-12.047-5.347-20.064-5.347-7.863 0-14.607 1.72-20.017 5.097-2.323 1.296-4.209 2.769-5.609 4.377-1.395 1.6-2.875 4.05-4.401 7.282l-.379.804 17.999 2.772.215-.438c1.932-3.947 5.219-5.867 10.043-5.867 2.753 0 4.999.801 6.675 2.381 1.688 1.593 2.508 3.658 2.508 6.313v3.847c-1.249-.585-2.292-1.005-3.105-1.252-.999-.301-2.236-.606-3.656-.901-2.16-.53-4.497-.798-6.948-.798-6.697 0-12.269 1.871-16.561 5.563-4.323 3.719-6.515 8.518-6.515 14.261 0 5.734 1.956 10.487 5.812 14.129 3.844 3.631 8.852 5.472 14.887 5.472 5.093 0 9.827-1.463 14.111-4.379l1.976-1.585v2.288 2.087h28.885V81.69h.06V68.718m76.682-.356h-7.321L791.397 51.23l15.917-14.614h7.524V21.578h-39.04v15.038h9.645l-15.087 13.892V18.035 2.22v-.118l-.06.001v-.001h-28.885v.118 15.168.646.44h8.489v49.888h-8.403v.358l-.087-.002v11.804h.087V83.4h28.885V68.362h-.027V55.371L794.456 83.4h19.168a35.18 35.18 0 0 1-.593-6.403 35.26 35.26 0 0 1 1.072-8.635m64.643 8.32c0 16.888-13.692 30.579-30.581 30.579s-30.583-13.69-30.583-30.579 13.692-30.584 30.583-30.584 30.581 13.692 30.581 30.584m-42.717 7.637c.68 0 1.253-.231 1.717-.697s.699-1.045.699-1.741c0-.715-.233-1.291-.699-1.731s-1.037-.656-1.717-.656-1.253.219-1.716.656-.699 1.017-.699 1.731c0 .695.233 1.279.699 1.741s1.036.697 1.716.697m11.947-13.786c-.915 0-1.749.152-2.515.46s-1.403.743-1.916 1.307v-1.57h-3.708v13.392h3.884V77.5c0-1.193.289-2.093.869-2.701s1.36-.907 2.34-.907c.877 0 1.549.261 2.016.782s.697 1.316.697 2.379v7.068h3.881v-7.666c0-1.959-.511-3.434-1.531-4.432s-2.359-1.492-4.02-1.492m7.816 13.589h3.884V65.653h-3.884v18.469"/></svg>